<svg width="18" height="18" viewBox="0 0 18 18" fill="none" xmlns="http://www.w3.org/2000/svg">
<mask id="mask0_476_1169" style="mask-type:alpha" maskUnits="userSpaceOnUse" x="0" y="0" width="18" height="18">
<rect width="18" height="18" fill="#D9D9D9"/>
</mask>
<g mask="url(#mask0_476_1169)">
<path fill-rule="evenodd" clip-rule="evenodd" d="M3.67494 7.38463C4.04782 7.01175 4.65237 7.01175 5.02525 7.38463L8.8445 11.2039C9.21737 11.5767 9.21737 12.1813 8.8445 12.5542C8.47162 12.9271 7.86707 12.9271 7.49419 12.5542L3.67494 8.73493C3.30207 8.36206 3.30207 7.7575 3.67494 7.38463Z" fill="#8732F5"/>
<path fill-rule="evenodd" clip-rule="evenodd" d="M14.5734 5.47524C14.9463 5.84811 14.9463 6.45267 14.5734 6.82554L8.84451 12.5544C8.47164 12.9273 7.86708 12.9273 7.49421 12.5544C7.12133 12.1815 7.12133 11.577 7.49421 11.2041L13.2231 5.47524C13.596 5.10236 14.2005 5.10236 14.5734 5.47524Z" fill="#8732F5"/>
</g>
</svg>
