<svg width="16" height="10" viewBox="0 0 16 10" fill="none" xmlns="http://www.w3.org/2000/svg">
<path d="M1.77778 0C0.797222 0 0 0.747396 0 1.66667V8.33333C0 9.2526 0.797222 10 1.77778 10H14.2222C15.2028 10 16 9.2526 16 8.33333V1.66667C16 0.747396 15.2028 0 14.2222 0H1.77778ZM3.11111 4.16667H7.55556C7.8 4.16667 8 4.35417 8 4.58333C8 4.8125 7.8 5 7.55556 5H3.11111C2.86667 5 2.66667 4.8125 2.66667 4.58333C2.66667 4.35417 2.86667 4.16667 3.11111 4.16667ZM2.66667 7.08333C2.66667 6.85417 2.86667 6.66667 3.11111 6.66667H12.8889C13.1333 6.66667 13.3333 6.85417 13.3333 7.08333C13.3333 7.3125 13.1333 7.5 12.8889 7.5H3.11111C2.86667 7.5 2.66667 7.3125 2.66667 7.08333ZM10.4444 2.5H12.6667C13.0361 2.5 13.3333 2.77865 13.3333 3.125V4.375C13.3333 4.72135 13.0361 5 12.6667 5H10.4444C10.075 5 9.77778 4.72135 9.77778 4.375V3.125C9.77778 2.77865 10.075 2.5 10.4444 2.5Z" fill="#8732F5"/>
</svg>
