<svg width="13" height="13" viewBox="0 0 13 13" fill="none" xmlns="http://www.w3.org/2000/svg">
<g clip-path="url(#clip0_476_971)">
<path d="M8.9883 1.14111L7.88228 2.24713L10.853 5.21783L11.959 4.11182C12.5303 3.54053 12.5303 2.61504 11.959 2.04375L11.0587 1.14111C10.4874 0.569824 9.56187 0.569824 8.99058 1.14111H8.9883ZM7.36584 2.76357L2.03914 8.09256C1.80148 8.33022 1.62781 8.625 1.53183 8.94721L0.722888 11.6963C0.66576 11.8905 0.718318 12.0984 0.859998 12.2401C1.00168 12.3818 1.20963 12.4344 1.40158 12.3795L4.15062 11.5706C4.47283 11.4746 4.76762 11.3009 5.00527 11.0633L10.3365 5.73428L7.36584 2.76357Z" fill="#8732F5"/>
</g>
<defs>
<clipPath id="clip0_476_971">
<rect width="11.7" height="11.7" fill="white" transform="translate(0.700195 0.699951)"/>
</clipPath>
</defs>
</svg>
