<svg width="20" height="18" viewBox="0 0 20 18" fill="none" xmlns="http://www.w3.org/2000/svg">
<path d="M5.82422 1.31786L5.41797 2.57143H2.5C1.12109 2.57143 0 3.72455 0 5.14286V15.4286C0 16.8469 1.12109 18 2.5 18H17.5C18.8789 18 20 16.8469 20 15.4286V5.14286C20 3.72455 18.8789 2.57143 17.5 2.57143H14.582L14.1758 1.31786C13.9219 0.530357 13.207 0 12.3984 0H7.60156C6.79297 0 6.07813 0.530357 5.82422 1.31786ZM10 6.42857C10.9946 6.42857 11.9484 6.83495 12.6517 7.5583C13.3549 8.28166 13.75 9.26274 13.75 10.2857C13.75 11.3087 13.3549 12.2898 12.6517 13.0131C11.9484 13.7365 10.9946 14.1429 10 14.1429C9.00544 14.1429 8.05161 13.7365 7.34835 13.0131C6.64509 12.2898 6.25 11.3087 6.25 10.2857C6.25 9.26274 6.64509 8.28166 7.34835 7.5583C8.05161 6.83495 9.00544 6.42857 10 6.42857Z" fill="#8732F5"/>
</svg>
