<svg width="30" height="30" viewBox="0 0 30 30" fill="none" xmlns="http://www.w3.org/2000/svg">
<mask id="mask0_1479_2945" style="mask-type:alpha" maskUnits="userSpaceOnUse" x="0" y="0" width="30" height="30">
<rect width="30" height="30" fill="#D9D9D9"/>
</mask>
<g mask="url(#mask0_1479_2945)">
</g>
<g clip-path="url(#clip0_1479_2945)">
<path d="M15.5625 20.875H8.125V13.4375H10.25V11.3125H8.125C6.95293 11.3125 6 12.2654 6 13.4375V20.875C6 22.0471 6.95293 23 8.125 23H15.5625C16.7346 23 17.6875 22.0471 17.6875 20.875V18.75H15.5625V20.875ZM13.4375 17.6875H20.875C22.0471 17.6875 23 16.7346 23 15.5625V8.125C23 6.95293 22.0471 6 20.875 6H13.4375C12.2654 6 11.3125 6.95293 11.3125 8.125V15.5625C11.3125 16.7346 12.2654 17.6875 13.4375 17.6875Z" fill="white"/>
</g>
<defs>
<clipPath id="clip0_1479_2945">
<rect width="17" height="17" fill="white" transform="translate(6 6)"/>
</clipPath>
</defs>
</svg>
