<svg width="30" height="30" viewBox="0 0 30 30" fill="none" xmlns="http://www.w3.org/2000/svg">
<mask id="mask0_1234_2051" style="mask-type:alpha" maskUnits="userSpaceOnUse" x="0" y="0" width="30" height="30">
<rect width="30" height="30" fill="#D9D9D9"/>
</mask>
<g mask="url(#mask0_1234_2051)">
<path d="M16.1198 11.1294C16.4562 10.928 16.6806 10.5625 16.6806 10.151C16.6806 9.51509 16.1523 9 15.5 9C14.8477 9 14.3194 9.51509 14.3194 10.151C14.3194 10.5654 14.5437 10.928 14.8802 11.1294L13.1891 14.4272C12.9205 14.9509 12.224 15.1005 11.7547 14.7351L9.125 12.6833C9.27257 12.4905 9.36111 12.2517 9.36111 11.9927C9.36111 11.3568 8.83281 10.8417 8.18056 10.8417C7.5283 10.8417 7 11.3568 7 11.9927C7 12.6287 7.5283 13.1438 8.18056 13.1438C8.18646 13.1438 8.19531 13.1438 8.20122 13.1438L9.55 20.378C9.71233 21.2528 10.4944 21.8917 11.4094 21.8917H19.5906C20.5026 21.8917 21.2847 21.2557 21.45 20.378L22.7988 13.1438C22.8047 13.1438 22.8135 13.1438 22.8194 13.1438C23.4717 13.1438 24 12.6287 24 11.9927C24 11.3568 23.4717 10.8417 22.8194 10.8417C22.1672 10.8417 21.6389 11.3568 21.6389 11.9927C21.6389 12.2517 21.7274 12.4905 21.875 12.6833L19.2453 14.7351C18.776 15.1005 18.0795 14.9509 17.8109 14.4272L16.1198 11.1294Z" fill="#F5E232"/>
</g>
</svg>
