<svg width="40" height="40" viewBox="0 0 40 40" fill="none" xmlns="http://www.w3.org/2000/svg">
<mask id="mask0_1810_2430" style="mask-type:alpha" maskUnits="userSpaceOnUse" x="0" y="0" width="40" height="40">
<rect width="40" height="40" fill="#D9D9D9"/>
</mask>
<g mask="url(#mask0_1810_2430)">
<path d="M32.1284 6.87518C30.9615 5.70827 29.0753 5.70827 27.9084 6.87518L26.3046 8.47368L31.521 13.6901L33.1248 12.0863C34.2917 10.9194 34.2917 9.03315 33.1248 7.86625L32.1284 6.87518ZM16.186 18.5975C15.861 18.9225 15.6106 19.3222 15.4667 19.7644L13.8895 24.496C13.735 24.9542 13.8576 25.4604 14.1986 25.8067C14.5396 26.1531 15.0458 26.2703 15.5093 26.1158L20.2409 24.5386C20.6778 24.3947 21.0775 24.1443 21.4078 23.8193L30.3221 14.8996L25.1004 9.67788L16.186 18.5975ZM12.1152 9.12906C9.29118 9.12906 7 11.4202 7 14.2443V27.8848C7 30.7088 9.29118 33 12.1152 33H25.7557C28.5798 33 30.8709 30.7088 30.8709 27.8848V22.7696C30.8709 21.8265 30.109 21.0645 29.1659 21.0645C28.2228 21.0645 27.4608 21.8265 27.4608 22.7696V27.8848C27.4608 28.8279 26.6989 29.5899 25.7557 29.5899H12.1152C11.1721 29.5899 10.4101 28.8279 10.4101 27.8848V14.2443C10.4101 13.3011 11.1721 12.5392 12.1152 12.5392H17.2304C18.1735 12.5392 18.9355 11.7772 18.9355 10.8341C18.9355 9.89102 18.1735 9.12906 17.2304 9.12906H12.1152Z" fill="#8732F5"/>
</g>
</svg>
