<svg width="12" height="13" viewBox="0 0 12 13" fill="none" xmlns="http://www.w3.org/2000/svg">
<path d="M11.9667 4.2309C12.0463 4.45185 11.9792 4.69818 11.8076 4.85564L10.7309 5.85622C10.7582 6.06701 10.7731 6.28287 10.7731 6.50127C10.7731 6.71967 10.7582 6.93553 10.7309 7.14632L11.8076 8.1469C11.9792 8.30436 12.0463 8.55069 11.9667 8.77164C11.8573 9.07384 11.7255 9.36335 11.5738 9.6427L11.457 9.84841C11.2929 10.1278 11.1088 10.3919 10.9074 10.6407C10.7607 10.8236 10.517 10.8845 10.2982 10.8134L8.91312 10.3639C8.57991 10.6255 8.21188 10.8439 7.81899 11.009L7.50816 12.4591C7.45843 12.6902 7.28436 12.873 7.05559 12.9111C6.71243 12.9695 6.35932 13 5.99876 13C5.63819 13 5.28509 12.9695 4.94193 12.9111C4.71315 12.873 4.53909 12.6902 4.48936 12.4591L4.17852 11.009C3.78563 10.8439 3.41761 10.6255 3.08439 10.3639L1.70181 10.816C1.48299 10.8871 1.23929 10.8236 1.09258 10.6433C0.891162 10.3944 0.70715 10.1303 0.54303 9.85095L0.426157 9.64524C0.274471 9.36589 0.142678 9.07638 0.0332654 8.77417C-0.0463076 8.55323 0.0208321 8.3069 0.192412 8.14944L1.26913 7.14886C1.24178 6.93553 1.22686 6.71967 1.22686 6.50127C1.22686 6.28287 1.24178 6.06701 1.26913 5.85622L0.192412 4.85564C0.0208321 4.69818 -0.0463076 4.45185 0.0332654 4.2309C0.142678 3.9287 0.274471 3.63919 0.426157 3.35984L0.54303 3.15413C0.70715 2.87478 0.891162 2.61067 1.09258 2.36179C1.23929 2.17894 1.48299 2.11799 1.70181 2.1891L3.08688 2.6386C3.42009 2.37703 3.78812 2.15862 4.18101 1.99355L4.49184 0.543465C4.54158 0.312366 4.71564 0.129517 4.94441 0.0914241C5.28757 0.0304747 5.64068 0 6.00124 0C6.36181 0 6.71491 0.0304747 7.05807 0.0888845C7.28685 0.126978 7.46091 0.309826 7.51065 0.540926L7.82148 1.99101C8.21437 2.15609 8.58239 2.37449 8.91561 2.63606L10.3007 2.18656C10.5195 2.11545 10.7632 2.17894 10.9099 2.35925C11.1113 2.60813 11.2953 2.87224 11.4595 3.15159L11.5763 3.3573C11.728 3.63665 11.8598 3.92616 11.9692 4.22836L11.9667 4.2309ZM6.00124 8.53292C6.52885 8.53292 7.03484 8.31887 7.40791 7.93786C7.78098 7.55685 7.99057 7.0401 7.99057 6.50127C7.99057 5.96244 7.78098 5.44569 7.40791 5.06468C7.03484 4.68367 6.52885 4.46962 6.00124 4.46962C5.47364 4.46962 4.96765 4.68367 4.59458 5.06468C4.22151 5.44569 4.01192 5.96244 4.01192 6.50127C4.01192 7.0401 4.22151 7.55685 4.59458 7.93786C4.96765 8.31887 5.47364 8.53292 6.00124 8.53292Z" fill="white"/>
</svg>
