<svg width="152" height="117" viewBox="0 0 152 117" fill="none" xmlns="http://www.w3.org/2000/svg">
<mask id="mask0_520_3213" style="mask-type:alpha" maskUnits="userSpaceOnUse" x="0" y="0" width="152" height="117">
<rect width="152" height="116.923" fill="#D9D9D9"/>
</mask>
<g mask="url(#mask0_520_3213)">
<path d="M44.5713 14.7796V56.3106C44.5713 56.7783 44.1971 57.1291 43.7528 57.1291H28.1787C27.7344 57.1291 27.3602 56.755 27.3602 56.3106V31.6399C27.3602 31.1956 26.9861 30.8214 26.5418 30.8214H7.38975C6.94544 30.8214 6.57129 30.4473 6.57129 30.003C6.57129 21.1402 13.7504 13.9845 22.5897 13.9845H43.7762C44.2205 13.9845 44.5947 14.3587 44.5947 14.803L44.5713 14.7796Z" fill="#8732F5"/>
<path d="M73.6378 34.5863V50.862C73.6378 51.3063 73.2402 51.6805 72.7959 51.6805H68.6802C68.2125 51.6805 67.8384 52.0547 67.8384 52.5223V76.2811H15.2698L14.2642 60.1925L13.2587 76.2811H7.27222V37.182C7.27222 36.7143 7.64637 36.3636 8.11406 36.3636H23.6882C24.1559 36.3636 24.5067 36.7143 24.5067 37.182V58.6023C24.5067 59.07 24.8808 59.4208 25.3485 59.4208H45.8802C46.5116 59.4208 47.0728 59.0233 47.3067 58.4854C47.4002 58.3451 47.4236 58.2048 47.4236 58.0411V14.803C47.4236 14.3587 47.7978 13.9845 48.2421 13.9845H48.8501C52.4747 13.9845 55.8654 14.99 58.7418 16.7439C58.9054 16.8608 59.0691 16.9543 59.2328 17.0713C64.4008 20.462 67.8384 26.3316 67.8384 32.9728C67.8384 33.4171 68.2125 33.7913 68.6802 33.7913H72.7959C73.2402 33.7913 73.6378 34.1654 73.6378 34.6097V34.5863Z" fill="#8732F5"/>
<path d="M140.705 34.6565V55.9365C136.239 50.0669 125.645 46.6995 110.095 46.3721C109.253 46.3721 108.411 46.3488 107.546 46.3488C106.844 46.3488 106.143 46.3488 105.465 46.3488C104.763 46.3488 104.085 46.3488 103.43 46.3955C102.705 46.3955 101.98 46.4423 101.279 46.4891C100.32 46.5358 99.3846 46.606 98.496 46.6762C98.496 46.6762 98.4492 46.6762 98.4258 46.6762C97.2566 46.7697 96.1341 46.91 95.035 47.0503C93.936 47.1906 92.8603 47.3543 91.8547 47.5414C91.6209 47.5648 91.4104 47.6115 91.1766 47.6583C90.9895 47.6817 90.8024 47.7285 90.6387 47.7518C89.376 47.9389 88.0664 47.9623 86.7803 47.7986C78.8997 46.7931 76.3274 42.1629 76.3507 34.8202C76.3975 23.2681 85.8449 13.9377 97.3969 13.9377H114.842C115.403 13.9377 115.871 14.4054 115.871 14.9666V22.0755C115.871 22.59 115.497 23.0343 114.982 23.1045C111.007 23.6657 105.722 23.9931 100.086 24.0165C99.5249 24.0165 99.0806 24.4608 99.0572 24.9986V25.1155C99.0572 25.7002 99.5015 26.1912 100.11 26.1912C104.576 26.0977 110.679 25.8405 114.725 25.3026C115.333 25.2325 115.871 25.7002 115.871 26.3315V32.8091C115.871 33.3002 115.543 33.7211 115.076 33.8146C110.726 34.7266 104.95 34.9137 100.133 34.9137C99.5483 34.9137 99.104 35.3814 99.104 35.9426C99.104 36.5038 99.5717 36.9715 100.133 36.9715C105.698 37.0183 112.924 36.7845 117.952 35.8491C118.443 35.7555 118.77 35.3346 118.77 34.8435V14.9432C118.77 14.382 119.215 13.9143 119.776 13.9143C131.281 13.9143 140.588 23.1512 140.682 34.6097L140.705 34.6565Z" fill="#8732F5"/>
<path d="M91.8554 47.5648C91.4579 47.635 91.0369 47.7051 90.6394 47.7987C90.8265 47.7519 91.0136 47.7051 91.1773 47.6817C91.3877 47.635 91.6216 47.5882 91.8554 47.5648Z" fill="#8732F5"/>
<path d="M95.0119 47.0737C93.9128 47.214 92.8605 47.3777 91.8315 47.5647C92.8371 47.3777 93.8894 47.214 95.0119 47.0737Z" fill="#8732F5"/>
<path d="M139.676 58.7894C138.974 57.4097 137.875 56.1703 136.472 55.0946C135.888 54.6036 135.209 54.1826 134.508 53.7617C128.498 50.3008 118.653 48.7106 107.569 48.7106C101.723 48.7106 96.2273 49.1549 91.4568 50.0903C81.2845 52.0546 74.4094 56.2405 74.4094 63.022C74.4094 68.1433 78.3146 71.7679 84.6285 74.0829C86.0549 74.6208 87.575 75.0885 89.2353 75.4626C94.4734 76.7254 100.787 77.31 107.592 77.31C125.902 77.31 140.752 72.9839 140.752 62.9986C140.752 61.4552 140.401 60.0522 139.723 58.766L139.676 58.7894ZM107.943 65.1734C103.126 65.1734 99.3842 63.4897 99.127 63.3494C98.4956 63.0454 98.1916 62.2737 98.4956 61.6189C98.7996 60.9642 99.5713 60.6836 100.226 60.9876C100.343 61.0343 107.92 64.4251 114.795 60.9876C115.426 60.6602 116.221 60.9408 116.548 61.5722C116.736 61.9463 116.736 62.3673 116.548 62.718C116.432 62.9753 116.244 63.1857 115.964 63.326C114.537 64.0276 113.088 64.4953 111.684 64.7759C110.375 65.0331 109.112 65.1266 107.92 65.1266L107.943 65.1734Z" fill="#8732F5"/>
<path d="M26.2608 88.4648L22.6128 89.0027C18.7544 89.5639 15.7144 93.9368 15.3636 99.4088L14.2879 116.737L13.2122 99.4088C12.8848 93.9368 9.84484 89.5405 5.98638 89.0027L2.33838 88.4648L5.98638 87.927C8.27807 87.5996 10.2892 85.8925 11.5987 83.4137C11.9261 82.8525 12.1833 82.2211 12.4172 81.5664C12.8381 80.327 13.1187 78.9473 13.2122 77.4974L13.2824 76.2581H15.2701L15.3402 77.4974C15.4572 79.1344 15.7845 80.6544 16.299 82.0107C16.603 82.7824 16.9538 83.4839 17.3747 84.1387C18.6842 86.1965 20.5316 87.5996 22.5895 87.9036L26.2375 88.4414L26.2608 88.4648Z" fill="#8732F5"/>
<path d="M150.69 13.7034C148.796 13.4228 147.299 11.2714 147.112 8.55877L146.575 0L146.037 8.55877C145.873 11.2714 144.376 13.4228 142.459 13.7034L140.658 13.9606L142.459 14.2178C144.353 14.4985 145.85 16.6498 146.037 19.3625L146.575 27.9212L147.112 19.3625C147.276 16.6498 148.773 14.4985 150.69 14.2178L152.491 13.9606L150.69 13.7034Z" fill="#8732F5"/>
</g>
</svg>
