<svg width="30" height="30" viewBox="0 0 30 30" fill="none" xmlns="http://www.w3.org/2000/svg">
<mask id="mask0_497_3442" style="mask-type:alpha" maskUnits="userSpaceOnUse" x="0" y="0" width="30" height="30">
<rect width="30" height="30" fill="#D9D9D9"/>
</mask>
<g mask="url(#mask0_497_3442)">
<path fill-rule="evenodd" clip-rule="evenodd" d="M8.03377 8.03361C8.60462 7.46276 9.53015 7.46276 10.101 8.03361L21.795 19.7276C22.3658 20.2984 22.3658 21.224 21.795 21.7948C21.2241 22.3657 20.2986 22.3657 19.7278 21.7948L8.03377 10.1008C7.46292 9.52999 7.46292 8.60446 8.03377 8.03361Z" fill="#271E33"/>
<path fill-rule="evenodd" clip-rule="evenodd" d="M21.795 8.03377C22.3658 8.60462 22.3658 9.53015 21.795 10.101L10.101 21.795C9.53017 22.3658 8.60465 22.3658 8.0338 21.795C7.46295 21.2241 7.46295 20.2986 8.0338 19.7278L19.7278 8.03377C20.2986 7.46292 21.2242 7.46292 21.795 8.03377Z" fill="#271E33"/>
</g>
</svg>
