<svg width="40" height="40" viewBox="0 0 40 40" fill="none" xmlns="http://www.w3.org/2000/svg">
<mask id="mask0_1790_2430" style="mask-type:alpha" maskUnits="userSpaceOnUse" x="0" y="0" width="40" height="40">
<rect width="40" height="40" fill="#D9D9D9"/>
</mask>
<g mask="url(#mask0_1790_2430)">
<path d="M18.5881 34.3722C19.369 35.2093 20.6372 35.2093 21.4182 34.3722L31.4143 23.6573C32.1952 22.8202 32.1952 21.4607 31.4143 20.6236C30.6333 19.7865 29.3651 19.7865 28.5841 20.6236L21.9992 27.6888V7.14298C21.9992 5.95764 21.1058 5 20 5C18.8942 5 18.0008 5.95764 18.0008 7.14298V27.6821L11.4159 20.6303C10.6349 19.7932 9.36665 19.7932 8.58571 20.6303C7.80476 21.4674 7.80476 22.8269 8.58571 23.664L18.5818 34.3789L18.5881 34.3722Z" fill="#8732F5"/>
</g>
</svg>
