<svg width="30" height="30" viewBox="0 0 30 30" fill="none" xmlns="http://www.w3.org/2000/svg">
<mask id="mask0_1234_2053" style="mask-type:alpha" maskUnits="userSpaceOnUse" x="0" y="0" width="30" height="30">
<rect width="30" height="30" fill="#D9D9D9"/>
</mask>
<g mask="url(#mask0_1234_2053)">
</g>
<g clip-path="url(#clip0_1234_2053)">
<path d="M15 15C15.9093 15 16.7814 14.6313 17.4244 13.9749C18.0673 13.3185 18.4286 12.4283 18.4286 11.5C18.4286 10.5717 18.0673 9.6815 17.4244 9.02513C16.7814 8.36875 15.9093 8 15 8C14.0907 8 13.2186 8.36875 12.5756 9.02513C11.9327 9.6815 11.5714 10.5717 11.5714 11.5C11.5714 12.4283 11.9327 13.3185 12.5756 13.9749C13.2186 14.6313 14.0907 15 15 15ZM13.7759 16.3125C11.1375 16.3125 9 18.4945 9 21.1879C9 21.6363 9.35625 22 9.79554 22H20.2045C20.6437 22 21 21.6363 21 21.1879C21 18.4945 18.8625 16.3125 16.2241 16.3125H13.7759Z" fill="#373040"/>
</g>
<defs>
<clipPath id="clip0_1234_2053">
<rect width="12" height="14" fill="white" transform="translate(9 8)"/>
</clipPath>
</defs>
</svg>
