<svg width="576" height="448" viewBox="0 0 576 448" fill="none" xmlns="http://www.w3.org/2000/svg">
<path d="M288 48C222.8 48 169.2 77.6 128.1 115.7C89.5999 151.5 62.9999 194 49.3999 224C62.9999 254 89.5999 296.5 128 332.3C169.2 370.4 222.8 400 288 400C353.2 400 406.8 370.4 447.9 332.3C486.4 296.5 513 254 526.6 224C513 194 486.4 151.5 448 115.7C406.8 77.6 353.2 48 288 48ZM95.3999 80.6C142.5 36.8 207.2 0 288 0C368.8 0 433.5 36.8 480.6 80.6C527.4 124.1 558.7 176 573.6 211.7C576.9 219.6 576.9 228.4 573.6 236.3C558.7 272 527.4 324 480.6 367.4C433.5 411.2 368.8 448 288 448C207.2 448 142.5 411.2 95.3999 367.4C48.5999 324 17.2999 272 2.4999 236.3C-0.800098 228.4 -0.800098 219.6 2.4999 211.7C17.2999 176 48.5999 124 95.3999 80.6ZM288 304C332.2 304 368 268.2 368 224C368 179.8 332.2 144 288 144C287.3 144 286.7 144 286 144C287.3 149.1 288 154.5 288 160C288 195.3 259.3 224 224 224C218.5 224 213.1 223.3 208 222C208 222.7 208 223.3 208 224C208 268.2 243.8 304 288 304ZM288 96C321.948 96 354.505 109.486 378.51 133.49C402.514 157.495 416 190.052 416 224C416 257.948 402.514 290.505 378.51 314.51C354.505 338.514 321.948 352 288 352C254.052 352 221.495 338.514 197.49 314.51C173.486 290.505 160 257.948 160 224C160 190.052 173.486 157.495 197.49 133.49C221.495 109.486 254.052 96 288 96Z" fill="#8732F5"/>
</svg>
