<svg width="34" height="34" viewBox="0 0 34 34" fill="none" xmlns="http://www.w3.org/2000/svg">
<mask id="mask0_1785_2437" style="mask-type:alpha" maskUnits="userSpaceOnUse" x="0" y="0" width="34" height="34">
<rect width="34" height="34" fill="#D9D9D9"/>
</mask>
<g mask="url(#mask0_1785_2437)">
<path d="M8.01613 26C7.45302 26 7 25.537 7 24.9615V22.8846C7 22.3091 7.45302 21.8462 8.01613 21.8462H10.0484C10.6115 21.8462 11.0645 22.3091 11.0645 22.8846V24.9615C11.0645 25.537 10.6115 26 10.0484 26H8.01613ZM14.4516 25.3077C13.7022 25.3077 13.0968 24.6889 13.0968 23.9231C13.0968 23.1572 13.7022 22.5385 14.4516 22.5385H26.6452C27.3946 22.5385 28 23.1572 28 23.9231C28 24.6889 27.3946 25.3077 26.6452 25.3077H14.4516ZM14.4516 18.3846C13.7022 18.3846 13.0968 17.7659 13.0968 17C13.0968 16.2341 13.7022 15.6154 14.4516 15.6154H26.6452C27.3946 15.6154 28 16.2341 28 17C28 17.7659 27.3946 18.3846 26.6452 18.3846H14.4516ZM14.4516 11.4615C13.7022 11.4615 13.0968 10.8428 13.0968 10.0769C13.0968 9.31106 13.7022 8.69231 14.4516 8.69231H26.6452C27.3946 8.69231 28 9.31106 28 10.0769C28 10.8428 27.3946 11.4615 26.6452 11.4615H14.4516ZM7 18.0385V15.9615C7 15.3861 7.45302 14.9231 8.01613 14.9231H10.0484C10.6115 14.9231 11.0645 15.3861 11.0645 15.9615V18.0385C11.0645 18.6139 10.6115 19.0769 10.0484 19.0769H8.01613C7.45302 19.0769 7 18.6139 7 18.0385ZM8.01613 12.1538C7.45302 12.1538 7 11.6909 7 11.1154V9.03846C7 8.46298 7.45302 8 8.01613 8H10.0484C10.6115 8 11.0645 8.46298 11.0645 9.03846V11.1154C11.0645 11.6909 10.6115 12.1538 10.0484 12.1538H8.01613Z" fill="#8732F5"/>
</g>
</svg>
