<svg width="34" height="34" viewBox="0 0 34 34" fill="none" xmlns="http://www.w3.org/2000/svg">
<mask id="mask0_530_3235" style="mask-type:alpha" maskUnits="userSpaceOnUse" x="0" y="0" width="34" height="34">
<rect width="34" height="34" fill="#D9D9D9"/>
</mask>
<g mask="url(#mask0_530_3235)">
</g>
<g clip-path="url(#clip0_530_3235)">
<path d="M28.0002 16.8438C28.0002 21.5564 23.2998 25.375 17.5002 25.375C15.9786 25.375 14.5348 25.1125 13.2305 24.6408C12.7424 24.9977 11.9467 25.4857 11.0034 25.8959C10.019 26.3225 8.83364 26.6875 7.65649 26.6875C7.38989 26.6875 7.152 26.5275 7.04946 26.2814C6.94692 26.0354 7.00434 25.7564 7.18891 25.5678L7.20122 25.5555C7.21352 25.5432 7.22993 25.5268 7.25454 25.498C7.29965 25.4488 7.36938 25.3709 7.45551 25.2643C7.62368 25.0592 7.84926 24.7557 8.07895 24.3783C8.48911 23.6975 8.87876 22.8033 8.95669 21.7984C7.72622 20.4039 7.00024 18.6936 7.00024 16.8438C7.00024 12.1311 11.7006 8.3125 17.5002 8.3125C23.2998 8.3125 28.0002 12.1311 28.0002 16.8438Z" fill="#8732F5"/>
</g>
<defs>
<clipPath id="clip0_530_3235">
<rect width="21" height="21" fill="white" transform="translate(7 7)"/>
</clipPath>
</defs>
</svg>
