<svg width="34" height="34" viewBox="0 0 34 34" fill="none" xmlns="http://www.w3.org/2000/svg">
<mask id="mask0_507_1523" style="mask-type:alpha" maskUnits="userSpaceOnUse" x="0" y="0" width="34" height="34">
<rect width="34" height="34" fill="#D9D9D9"/>
</mask>
<g mask="url(#mask0_507_1523)">
</g>
<path d="M15.9391 6.23345C16.6117 5.92349 17.3881 5.92349 18.0607 6.23345L27.928 10.7706C28.3117 10.9458 28.5554 11.3276 28.5554 11.7499C28.5554 12.1721 28.3117 12.554 27.928 12.7292L18.0607 17.2663C17.3881 17.5762 16.6117 17.5762 15.9391 17.2663L6.07177 12.7292C5.68809 12.5495 5.44434 12.1676 5.44434 11.7499C5.44434 11.3321 5.68809 10.9458 6.07177 10.7706L15.9391 6.23345ZM25.5266 15.4155L27.928 16.5206C28.3117 16.6958 28.5554 17.0776 28.5554 17.4999C28.5554 17.9221 28.3117 18.304 27.928 18.4791L18.0607 23.0163C17.3881 23.3262 16.6117 23.3262 15.9391 23.0163L6.07177 18.4791C5.68809 18.2995 5.44434 17.9176 5.44434 17.4999C5.44434 17.0821 5.68809 16.6958 6.07177 16.5206L8.47316 15.4155L15.3343 18.569C16.3905 19.0542 17.6093 19.0542 18.6655 18.569L25.5266 15.4155ZM18.6655 24.319L25.5266 21.1655L27.928 22.2706C28.3117 22.4458 28.5554 22.8276 28.5554 23.2499C28.5554 23.6721 28.3117 24.054 27.928 24.2292L18.0607 28.7663C17.3881 29.0762 16.6117 29.0762 15.9391 28.7663L6.07177 24.2292C5.68809 24.0495 5.44434 23.6676 5.44434 23.2499C5.44434 22.8321 5.68809 22.4458 6.07177 22.2706L8.47316 21.1655L15.3343 24.319C16.3905 24.8041 17.6093 24.8041 18.6655 24.319Z" fill="#373040"/>
</svg>
