<svg width="34" height="34" viewBox="0 0 34 34" fill="none" xmlns="http://www.w3.org/2000/svg">
<mask id="mask0_530_3231" style="mask-type:alpha" maskUnits="userSpaceOnUse" x="0" y="0" width="34" height="34">
<rect width="34" height="34" fill="#D9D9D9"/>
</mask>
<g mask="url(#mask0_530_3231)">
</g>
<path d="M15.9391 6.23369C16.6117 5.92373 17.3881 5.92373 18.0607 6.23369L27.928 10.7708C28.3117 10.946 28.5554 11.3278 28.5554 11.7501C28.5554 12.1724 28.3117 12.5542 27.928 12.7294L18.0607 17.2665C17.3881 17.5765 16.6117 17.5765 15.9391 17.2665L6.07177 12.7294C5.68809 12.5497 5.44434 12.1679 5.44434 11.7501C5.44434 11.3323 5.68809 10.946 6.07177 10.7708L15.9391 6.23369ZM25.5266 15.4157L27.928 16.5208C28.3117 16.696 28.5554 17.0778 28.5554 17.5001C28.5554 17.9224 28.3117 18.3042 27.928 18.4794L18.0607 23.0165C17.3881 23.3265 16.6117 23.3265 15.9391 23.0165L6.07177 18.4794C5.68809 18.2997 5.44434 17.9179 5.44434 17.5001C5.44434 17.0823 5.68809 16.696 6.07177 16.5208L8.47316 15.4157L15.3343 18.5692C16.3905 19.0544 17.6093 19.0544 18.6655 18.5692L25.5266 15.4157ZM18.6655 24.3192L25.5266 21.1657L27.928 22.2708C28.3117 22.446 28.5554 22.8278 28.5554 23.2501C28.5554 23.6724 28.3117 24.0542 27.928 24.2294L18.0607 28.7665C17.3881 29.0765 16.6117 29.0765 15.9391 28.7665L6.07177 24.2294C5.68809 24.0497 5.44434 23.6679 5.44434 23.2501C5.44434 22.8323 5.68809 22.446 6.07177 22.2708L8.47316 21.1657L15.3343 24.3192C16.3905 24.8044 17.6093 24.8044 18.6655 24.3192Z" fill="#8732F5"/>
</svg>
