<svg width="34" height="34" viewBox="0 0 34 34" fill="none" xmlns="http://www.w3.org/2000/svg">
<mask id="mask0_530_3227" style="mask-type:alpha" maskUnits="userSpaceOnUse" x="0" y="0" width="34" height="34">
<rect width="34" height="34" fill="#D9D9D9"/>
</mask>
<g mask="url(#mask0_530_3227)">
</g>
<g clip-path="url(#clip0_530_3227)">
<path d="M27.9924 17.4795C27.9924 18.2178 27.4195 18.7961 26.7702 18.7961H25.548L25.5747 25.3668C25.5747 25.4775 25.5671 25.5883 25.5556 25.699V26.3635C25.5556 27.2699 24.872 28.0041 24.0279 28.0041H23.4168C23.3747 28.0041 23.3327 28.0041 23.2907 28C23.2372 28.0041 23.1838 28.0041 23.1303 28.0041L21.889 28H20.9723C20.1282 28 19.4445 27.2658 19.4445 26.3594V25.375V22.75C19.4445 22.024 18.8984 21.4375 18.2223 21.4375H15.7779C15.1018 21.4375 14.5556 22.024 14.5556 22.75V25.375V26.3594C14.5556 27.2658 13.872 28 13.0279 28H12.1112H10.8928C10.8355 28 10.7782 27.9959 10.7209 27.9918C10.6751 27.9959 10.6293 28 10.5834 28H9.97231C9.12821 28 8.44453 27.2658 8.44453 26.3594V21.7656C8.44453 21.7287 8.44453 21.6877 8.44835 21.6508V18.792H7.22613C6.53863 18.792 6.00391 18.2178 6.00391 17.4754C6.00391 17.1062 6.11849 16.7781 6.38585 16.491L16.1751 7.32812C16.4424 7.04102 16.748 7 17.0154 7C17.2827 7 17.5883 7.08203 17.8174 7.28711L27.5723 16.4951C27.8779 16.7822 28.0306 17.1104 27.9924 17.4795Z" fill="#8732F5"/>
</g>
<defs>
<clipPath id="clip0_530_3227">
<rect width="22" height="21" fill="white" transform="translate(6 7)"/>
</clipPath>
</defs>
</svg>
