<svg width="30" height="30" viewBox="0 0 30 30" fill="none" xmlns="http://www.w3.org/2000/svg">
<g clip-path="url(#clip0_1737_2427)">
<path d="M9.375 21.5625C10.9277 21.5625 12.1875 22.8223 12.1875 24.375V25.3125L16.4355 22.125C16.9219 21.7617 17.5137 21.5625 18.123 21.5625H26.25C26.7656 21.5625 27.1875 21.1406 27.1875 20.625V3.75C27.1875 3.23438 26.7656 2.8125 26.25 2.8125H3.75C3.23437 2.8125 2.8125 3.23438 2.8125 3.75V20.625C2.8125 21.1406 3.23437 21.5625 3.75 21.5625H9.375ZM12.1875 28.8281L12.1758 28.8398L11.877 29.0625L10.875 29.8125C10.5938 30.0234 10.2129 30.0586 9.89063 29.9004C9.56836 29.7422 9.375 29.4199 9.375 29.0625V27.8145V27.4395V27.4219V27.1875V24.375H6.5625H3.75C1.68164 24.375 0 22.6934 0 20.625V3.75C0 1.68164 1.68164 0 3.75 0H26.25C28.3184 0 30 1.68164 30 3.75V20.625C30 22.6934 28.3184 24.375 26.25 24.375H18.123L12.1875 28.8281Z" fill="#8732F5"/>
</g>
<defs>
<clipPath id="clip0_1737_2427">
<rect width="30" height="30" fill="white"/>
</clipPath>
</defs>
</svg>
