<svg width="34" height="34" viewBox="0 0 34 34" fill="none" xmlns="http://www.w3.org/2000/svg">
<mask id="mask0_507_1539" style="mask-type:alpha" maskUnits="userSpaceOnUse" x="0" y="0" width="34" height="34">
<rect width="34" height="34" fill="#D9D9D9"/>
</mask>
<g mask="url(#mask0_507_1539)">
</g>
<g clip-path="url(#clip0_507_1539)">
<path d="M17 17.25C18.5155 17.25 19.969 16.6574 21.0406 15.6025C22.1122 14.5476 22.7143 13.1168 22.7143 11.625C22.7143 10.1332 22.1122 8.70242 21.0406 7.64752C19.969 6.59263 18.5155 6 17 6C15.4845 6 14.031 6.59263 12.9594 7.64752C11.8878 8.70242 11.2857 10.1332 11.2857 11.625C11.2857 13.1168 11.8878 14.5476 12.9594 15.6025C14.031 16.6574 15.4845 17.25 17 17.25ZM14.9598 19.3594C10.5625 19.3594 7 22.8662 7 27.1948C7 27.9155 7.59375 28.5 8.32589 28.5H25.6741C26.4062 28.5 27 27.9155 27 27.1948C27 22.8662 23.4375 19.3594 19.0402 19.3594H14.9598Z" fill="#373040"/>
</g>
<defs>
<clipPath id="clip0_507_1539">
<rect width="20" height="22.5" fill="white" transform="translate(7 6)"/>
</clipPath>
</defs>
</svg>
