<svg width="27" height="27" viewBox="0 0 27 27" fill="none" xmlns="http://www.w3.org/2000/svg">
<path d="M25.3125 14.7064H1.6875C0.7425 14.7064 0 13.962 0 13.0146C0 12.0671 0.7425 11.3228 1.6875 11.3228H25.3125C26.2575 11.3228 27 12.0671 27 13.0146C27 13.962 26.2575 14.7064 25.3125 14.7064Z" fill="white"/>
<path d="M12.2936 25.3125L12.2936 1.6875C12.2936 0.7425 13.038 -1.15364e-07 13.9854 -7.39513e-08C14.9329 -3.25386e-08 15.6772 0.7425 15.6772 1.6875L15.6772 25.3125C15.6772 26.2575 14.9328 27 13.9854 27C13.038 27 12.2936 26.2575 12.2936 25.3125Z" fill="white"/>
</svg>
