<svg width="18" height="14" viewBox="0 0 18 14" fill="none" xmlns="http://www.w3.org/2000/svg">
<g clip-path="url(#clip0_600_1745)">
<path d="M2.7 3.5C2.7 2.57174 3.07928 1.6815 3.75442 1.02513C4.42955 0.368749 5.34522 0 6.3 0C7.25478 0 8.17045 0.368749 8.84558 1.02513C9.52072 1.6815 9.9 2.57174 9.9 3.5C9.9 4.42826 9.52072 5.3185 8.84558 5.97487C8.17045 6.63125 7.25478 7 6.3 7C5.34522 7 4.42955 6.63125 3.75442 5.97487C3.07928 5.3185 2.7 4.42826 2.7 3.5ZM0 13.1879C0 10.4945 2.24437 8.3125 5.01469 8.3125H7.58531C10.3556 8.3125 12.6 10.4945 12.6 13.1879C12.6 13.6363 12.2259 14 11.7647 14H0.835312C0.374063 14 0 13.6363 0 13.1879ZM17.1366 14H13.2609C13.4128 13.743 13.5028 13.4449 13.5028 13.125V12.9062C13.5028 11.2465 12.7406 9.75625 11.5397 8.75547C11.6072 8.75274 11.6719 8.75 11.7394 8.75H13.4662C15.9694 8.75 18 10.7242 18 13.1605C18 13.6254 17.6119 14 17.1366 14ZM12.15 7C11.2781 7 10.4906 6.65547 9.91969 6.10039C10.4738 5.37305 10.8 4.47344 10.8 3.5C10.8 2.76719 10.6144 2.07539 10.2853 1.46836C10.8084 1.09648 11.4525 0.875 12.15 0.875C13.8909 0.875 15.3 2.24492 15.3 3.9375C15.3 5.63008 13.8909 7 12.15 7Z" fill="#8732F5"/>
</g>
<defs>
<clipPath id="clip0_600_1745">
<rect width="18" height="14" fill="white"/>
</clipPath>
</defs>
</svg>
