<?xml version="1.0" encoding="UTF-8"?>
<svg id="_레이어_1" data-name="레이어 1" xmlns="http://www.w3.org/2000/svg" version="1.1" viewBox="0 0 141.73 68.03">
  <defs>
    <style>
      .cls-1 {
        fill: #8732f5;
        stroke-width: 0px;
      }
    </style>
  </defs>
  <g>
    <path class="cls-1" d="M56.07,21.41v17.76c0,.2-.16.35-.35.35h-6.66c-.19,0-.35-.16-.35-.35v-10.55c0-.19-.16-.35-.35-.35h-8.19c-.19,0-.35-.16-.35-.35,0-3.79,3.07-6.85,6.85-6.85h9.06c.19,0,.35.16.35.35Z"/>
    <path class="cls-1" d="M68.5,29.88v6.96c0,.19-.17.35-.36.35h-1.76c-.2,0-.36.16-.36.36v10.16h-22.48l-.43-6.88-.43,6.88h-2.56v-16.72c0-.2.16-.35.36-.35h6.66c.2,0,.35.15.35.35v9.16c0,.2.16.35.36.35h8.78c.27,0,.51-.17.61-.4h0c.04-.06.05-.12.05-.19v-18.49c0-.19.16-.35.35-.35h.26c1.55,0,3,.43,4.23,1.18.07.05.14.09.21.14,2.21,1.45,3.68,3.96,3.68,6.8,0,.19.16.35.36.35h1.76c.19,0,.36.16.36.35Z"/>
    <path class="cls-1" d="M97.18,29.91v9.1c-1.91-2.51-6.44-3.95-13.09-4.09-.36,0-.72-.01-1.09-.01-.3,0-.6,0-.89,0-.3,0-.59,0-.87.02-.31,0-.62.02-.92.04-.41.02-.81.05-1.19.08,0,0-.02,0-.03,0-.5.04-.98.1-1.45.16-.47.06-.93.13-1.36.21-.1.01-.19.03-.29.05-.08.01-.16.03-.23.04-.54.08-1.1.09-1.65.02-3.37-.43-4.47-2.41-4.46-5.55.02-4.94,4.06-8.93,9-8.93h7.46c.24,0,.44.2.44.44v3.04c0,.22-.16.41-.38.44-1.7.24-3.96.38-6.37.39-.24,0-.43.19-.44.42v.05c0,.25.19.46.45.46,1.91-.04,4.52-.15,6.25-.38.26-.03.49.17.49.44v2.77c0,.21-.14.39-.34.43-1.86.39-4.33.47-6.39.47-.25,0-.44.2-.44.44s.2.44.44.44c2.38.02,5.47-.08,7.62-.48.21-.04.35-.22.35-.43v-8.51c0-.24.19-.44.43-.44,4.92,0,8.9,3.95,8.94,8.85h0Z"/>
    <path class="cls-1" d="M76.29,35.43c-.17.03-.35.06-.52.1h0c.08-.02.16-.04.23-.05.09-.02.19-.04.29-.05Z"/>
    <path class="cls-1" d="M77.64,35.22c-.47.06-.92.13-1.36.21.43-.08.88-.15,1.36-.21Z"/>
    <path class="cls-1" d="M96.74,40.23c-.3-.59-.77-1.12-1.37-1.58-.25-.21-.54-.39-.84-.57-2.57-1.48-6.78-2.16-11.52-2.16-2.5,0-4.85.19-6.89.59-4.35.84-7.29,2.63-7.29,5.53,0,2.19,1.67,3.74,4.37,4.73.61.23,1.26.43,1.97.59,2.24.54,4.94.79,7.85.79,7.83,0,14.18-1.85,14.18-6.12,0-.66-.15-1.26-.44-1.81ZM83.17,42.96c-2.06,0-3.66-.72-3.77-.78-.27-.13-.4-.46-.27-.74.13-.28.46-.4.74-.27.05.02,3.29,1.47,6.23,0,.27-.14.61-.02.75.25.08.16.08.34,0,.49-.05.11-.13.2-.25.26-.61.3-1.23.5-1.83.62-.56.11-1.1.15-1.61.15Z"/>
  </g>
  <path class="cls-1" d="M48.24,52.92l-1.56.23c-1.65.24-2.95,2.11-3.1,4.45l-.46,7.41-.46-7.41c-.14-2.34-1.44-4.22-3.09-4.45l-1.56-.23,1.56-.23c.98-.14,1.84-.87,2.4-1.93.14-.24.25-.51.35-.79.18-.53.3-1.12.34-1.74l.03-.53h.85l.03.53c.05.7.19,1.35.41,1.93.13.33.28.63.46.91.56.88,1.35,1.48,2.23,1.61l1.56.23Z"/>
  <path class="cls-1" d="M101.45,20.95c-.81-.12-1.45-1.04-1.53-2.2l-.23-3.66-.23,3.66c-.07,1.16-.71,2.08-1.53,2.2l-.77.11.77.11c.81.12,1.45,1.04,1.53,2.2l.23,3.66.23-3.66c.07-1.16.71-2.08,1.53-2.2l.77-.11-.77-.11Z"/>
</svg>